# xmcd CD database file
# Copyright (C) 1997 Ti Kan
# 
# Track frame offsets:
#     183
#     18933
#     37540
#     52718
#     69860
#     86805
#     101133
#     118318
#     131153
#     153768
# 
# Disc length: 2263 seconds
# 
# Revision: 1
# Processed by: cddbd v1.4b41PL1 Copyright (c) Steve Scherf et al.
# Submitted via: DiscPlay 4.0.3
# 
DISCID=7308d50a
DTITLE=Freddie King - Burglar
DYEAR=1900
DGENRE=
TTITLE0=Pack It Up
TTITLE1=My Credit Didn't Go Through
TTITLE2=I Got The Same Old Blues
TTITLE3=Only Getting Second Best
TTITLE4=Texas Flyer
TTITLE5=Pulp Wood
TTITLE6=She's A Burglar
TTITLE7=Sugar Sweet
TTITLE8=I Had A Dream
TTITLE9=Come On (Let The Good Times Roll
EXTD=
EXTT0=
EXTT1=
EXTT2=
EXTT3=
EXTT4=
EXTT5=
EXTT6=
EXTT7=
EXTT8=
EXTT9=
PLAYORDER=
